ffmpeg version 6.1.1-3ubuntu5 Copyright (c) 2000-2023 the FFmpeg developers
  built with gcc 13 (Ubuntu 13.2.0-23ubuntu3)
  configuration: --prefix=/usr --extra-version=3ubuntu5 --toolchain=hardened --libdir=/usr/lib/x86_64-linux-gnu --incdir=/usr/include/x86_64-linux-gnu --arch=amd64 --enable-gpl --disable-stripping --disable-omx --enable-gnutls --enable-libaom --enable-libass --enable-libbs2b --enable-libcaca --enable-libcdio --enable-libcodec2 --enable-libdav1d --enable-libflite --enable-libfontconfig --enable-libfreetype --enable-libfribidi --enable-libglslang --enable-libgme --enable-libgsm --enable-libharfbuzz --enable-libmp3lame --enable-libmysofa --enable-libopenjpeg --enable-libopenmpt --enable-libopus --enable-librubberband --enable-libshine --enable-libsnappy --enable-libsoxr --enable-libspeex --enable-libtheora --enable-libtwolame --enable-libvidstab --enable-libvorbis --enable-libvpx --enable-libwebp --enable-libx265 --enable-libxml2 --enable-libxvid --enable-libzimg --enable-openal --enable-opencl --enable-opengl --disable-sndio --enable-libvpl --disable-libmfx --enable-libdc1394 --enable-libdrm --enable-libiec61883 --enable-chromaprint --enable-frei0r --enable-ladspa --enable-libbluray --enable-libjack --enable-libpulse --enable-librabbitmq --enable-librist --enable-libsrt --enable-libssh --enable-libsvtav1 --enable-libx264 --enable-libzmq --enable-libzvbi --enable-lv2 --enable-sdl2 --enable-libplacebo --enable-librav1e --enable-pocketsphinx --enable-librsvg --enable-libjxl --enable-shared
  libavutil      58. 29.100 / 58. 29.100
  libavcodec     60. 31.102 / 60. 31.102
  libavformat    60. 16.100 / 60. 16.100
  libavdevice    60.  3.100 / 60.  3.100
  libavfilter     9. 12.100 /  9. 12.100
  libswscale      7.  5.100 /  7.  5.100
  libswresample   4. 12.100 /  4. 12.100
  libpostproc    57.  3.100 / 57.  3.100
[x11grab @ 0x5610c48835c0] Stream #0: not enough frames to estimate rate; consider increasing probesize
Input #0, x11grab, from ':1':
  Duration: N/A, start: 1781382897.317055, bitrate: 442368 kb/s
  Stream #0:0: Video: rawvideo (BGR[0] / 0x524742), bgr0, 1280x720, 442368 kb/s, 15 fps, 1000k tbr, 1000k tbn
Stream mapping:
  Stream #0:0 -> #0:0 (rawvideo (native) -> h264 (libx264))
Press [q] to stop, [?] for help
[libx264 @ 0x5610c488c300] using cpu capabilities: MMX2 SSE2Fast SSSE3 SSE4.2 AVX FMA3 BMI2 AVX2 AVX512
[libx264 @ 0x5610c488c300] profile High, level 3.1, 4:2:0, 8-bit
[libx264 @ 0x5610c488c300] 264 - core 164 r3108 31e19f9 - H.264/MPEG-4 AVC codec - Copyleft 2003-2023 - http://www.videolan.org/x264.html - options: cabac=1 ref=3 deblock=1:0:0 analyse=0x3:0x113 me=hex subme=7 psy=1 psy_rd=1.00:0.00 mixed_ref=1 me_range=16 chroma_me=1 trellis=1 8x8dct=1 cqm=0 deadzone=21,11 fast_pskip=1 chroma_qp_offset=-2 threads=6 lookahead_threads=1 sliced_threads=0 nr=0 decimate=1 interlaced=0 bluray_compat=0 constrained_intra=0 bframes=3 b_pyramid=2 b_adapt=1 b_bias=0 direct=1 weightb=1 open_gop=0 weightp=2 keyint=250 keyint_min=15 scenecut=40 intra_refresh=0 rc_lookahead=40 rc=crf mbtree=1 crf=32.0 qcomp=0.60 qpmin=0 qpmax=69 qpstep=4 ip_ratio=1.40 aq=1:1.00
Output #0, mp4, to '/workspace/challenges/adaptive-memory-testing/attempts/2026-06-13-18-52/evidence/participant.mp4':
  Metadata:
    encoder         : Lavf60.16.100
  Stream #0:0: Video: h264 (avc1 / 0x31637661), yuv420p(tv, progressive), 1280x720, q=2-31, 15 fps, 15360 tbn
    Metadata:
      encoder         : Lavc60.31.102 libx264
    Side data:
      cpb: bitrate max/min/avg: 0/0/0 buffer size: 0 vbv_delay: N/A
frame=    0 fps=0.0 q=0.0 size=       0kB time=N/A bitrate=N/A speed=N/A    
frame=    0 fps=0.0 q=0.0 size=       0kB time=N/A bitrate=N/A speed=N/A    
frame=    0 fps=0.0 q=0.0 size=       0kB time=N/A bitrate=N/A speed=N/A    
frame=    0 fps=0.0 q=0.0 size=       0kB time=N/A bitrate=N/A speed=N/A    
frame=    0 fps=0.0 q=0.0 size=       0kB time=N/A bitrate=N/A speed=N/A    
frame=    0 fps=0.0 q=0.0 size=       0kB time=N/A bitrate=N/A speed=N/A    
frame=    0 fps=0.0 q=0.0 size=       0kB time=N/A bitrate=N/A speed=N/A    
frame=    7 fps=1.9 q=36.0 size=       0kB time=00:00:00.33 bitrate=   1.2kbits/s speed=0.0893x    
frame=   15 fps=3.5 q=36.0 size=       0kB time=00:00:00.86 bitrate=   0.4kbits/s speed=0.203x    
frame=   23 fps=4.8 q=36.0 size=       0kB time=00:00:01.40 bitrate=   0.3kbits/s speed=0.292x    
frame=   31 fps=5.8 q=36.0 size=       0kB time=00:00:01.93 bitrate=   0.2kbits/s speed=0.363x    
frame=   39 fps=6.7 q=36.0 size=       0kB time=00:00:02.46 bitrate=   0.2kbits/s speed=0.421x    
frame=   47 fps=7.3 q=36.0 size=       0kB time=00:00:03.00 bitrate=   0.1kbits/s speed=0.469x    
frame=   55 fps=7.9 q=36.0 size=       0kB time=00:00:03.53 bitrate=   0.1kbits/s speed=0.51x    
frame=   63 fps=8.4 q=36.0 size=       0kB time=00:00:04.06 bitrate=   0.1kbits/s speed=0.545x    
frame=   71 fps=8.9 q=36.0 size=       0kB time=00:00:04.60 bitrate=   0.1kbits/s speed=0.575x    
frame=   79 fps=9.3 q=36.0 size=       0kB time=00:00:05.13 bitrate=   0.1kbits/s speed=0.602x    
frame=   87 fps=9.6 q=36.0 size=       0kB time=00:00:05.66 bitrate=   0.1kbits/s speed=0.625x    
frame=   95 fps=9.9 q=36.0 size=       0kB time=00:00:06.20 bitrate=   0.1kbits/s speed=0.646x    
frame=  103 fps= 10 q=36.0 size=       0kB time=00:00:06.73 bitrate=   0.1kbits/s speed=0.665x    
frame=  111 fps= 10 q=36.0 size=       0kB time=00:00:07.26 bitrate=   0.1kbits/s speed=0.682x    
frame=  119 fps= 11 q=36.0 size=       0kB time=00:00:07.80 bitrate=   0.0kbits/s speed=0.697x    
frame=  128 fps= 11 q=36.0 size=       0kB time=00:00:08.33 bitrate=   0.0kbits/s speed=0.711x    
frame=  135 fps= 11 q=36.0 size=       0kB time=00:00:08.86 bitrate=   0.0kbits/s speed=0.723x    
frame=  143 fps= 11 q=36.0 size=       0kB time=00:00:09.40 bitrate=   0.0kbits/s speed=0.735x    
frame=  152 fps= 11 q=36.0 size=       0kB time=00:00:09.93 bitrate=   0.0kbits/s speed=0.745x    
frame=  159 fps= 11 q=36.0 size=       0kB time=00:00:10.46 bitrate=   0.0kbits/s speed=0.755x    
frame=  167 fps= 12 q=36.0 size=       0kB time=00:00:11.00 bitrate=   0.0kbits/s speed=0.764x    
frame=  175 fps= 12 q=36.0 size=       0kB time=00:00:11.53 bitrate=   0.0kbits/s speed=0.773x    
frame=  183 fps= 12 q=36.0 size=       0kB time=00:00:12.06 bitrate=   0.0kbits/s speed=0.78x    
frame=  191 fps= 12 q=36.0 size=       0kB time=00:00:12.60 bitrate=   0.0kbits/s speed=0.788x    
frame=  199 fps= 12 q=36.0 size=       0kB time=00:00:13.13 bitrate=   0.0kbits/s speed=0.795x    
frame=  207 fps= 12 q=36.0 size=       0kB time=00:00:13.66 bitrate=   0.0kbits/s speed=0.801x    
frame=  215 fps= 12 q=36.0 size=     256kB time=00:00:14.20 bitrate= 147.7kbits/s speed=0.807x    
frame=  223 fps= 12 q=36.0 size=     256kB time=00:00:14.73 bitrate= 142.4kbits/s speed=0.813x    
frame=  232 fps= 12 q=36.0 size=     256kB time=00:00:15.26 bitrate= 137.4kbits/s speed=0.818x    
frame=  239 fps= 12 q=36.0 size=     256kB time=00:00:15.80 bitrate= 132.8kbits/s speed=0.823x    
frame=  247 fps= 13 q=36.0 size=     256kB time=00:00:16.33 bitrate= 128.4kbits/s speed=0.828x    
frame=  255 fps= 13 q=36.0 size=     256kB time=00:00:16.86 bitrate= 124.4kbits/s speed=0.832x    
frame=  263 fps= 13 q=36.0 size=     256kB time=00:00:17.40 bitrate= 120.5kbits/s speed=0.837x    
frame=  271 fps= 13 q=36.0 size=     256kB time=00:00:17.93 bitrate= 117.0kbits/s speed=0.841x    
frame=  279 fps= 13 q=36.0 size=     256kB time=00:00:18.46 bitrate= 113.6kbits/s speed=0.845x    
frame=  287 fps= 13 q=36.0 size=     256kB time=00:00:19.00 bitrate= 110.4kbits/s speed=0.848x    
frame=  295 fps= 13 q=36.0 size=     256kB time=00:00:19.53 bitrate= 107.4kbits/s speed=0.852x    
frame=  304 fps= 13 q=36.0 size=     256kB time=00:00:20.06 bitrate= 104.5kbits/s speed=0.855x    
frame=  311 fps= 13 q=36.0 size=     256kB time=00:00:20.60 bitrate= 101.8kbits/s speed=0.858x    
frame=  319 fps= 13 q=36.0 size=     256kB time=00:00:21.13 bitrate=  99.3kbits/s speed=0.862x    
frame=  327 fps= 13 q=36.0 size=     256kB time=00:00:21.66 bitrate=  96.8kbits/s speed=0.865x    
frame=  335 fps= 13 q=36.0 size=     256kB time=00:00:22.20 bitrate=  94.5kbits/s speed=0.867x    
frame=  343 fps= 13 q=36.0 size=     256kB time=00:00:22.73 bitrate=  92.3kbits/s speed=0.87x    
frame=  351 fps= 13 q=36.0 size=     256kB time=00:00:23.26 bitrate=  90.2kbits/s speed=0.873x    
frame=  359 fps= 13 q=36.0 size=     256kB time=00:00:23.80 bitrate=  88.1kbits/s speed=0.875x    
frame=  367 fps= 13 q=36.0 size=     256kB time=00:00:24.33 bitrate=  86.2kbits/s speed=0.878x    
frame=  375 fps= 13 q=36.0 size=     256kB time=00:00:24.86 bitrate=  84.4kbits/s speed=0.88x    
frame=  383 fps= 13 q=36.0 size=     256kB time=00:00:25.40 bitrate=  82.6kbits/s speed=0.882x    
frame=  391 fps= 13 q=36.0 size=     256kB time=00:00:25.93 bitrate=  80.9kbits/s speed=0.884x    
frame=  399 fps= 13 q=36.0 size=     256kB time=00:00:26.46 bitrate=  79.3kbits/s speed=0.886x    
frame=  407 fps= 13 q=36.0 size=     256kB time=00:00:27.00 bitrate=  77.7kbits/s speed=0.888x    
frame=  415 fps= 13 q=36.0 size=     256kB time=00:00:27.53 bitrate=  76.2kbits/s speed=0.89x    
frame=  423 fps= 13 q=36.0 size=     256kB time=00:00:28.06 bitrate=  74.7kbits/s speed=0.892x    
frame=  431 fps= 13 q=36.0 size=     256kB time=00:00:28.60 bitrate=  73.3kbits/s speed=0.894x    
frame=  439 fps= 13 q=36.0 size=     256kB time=00:00:29.13 bitrate=  72.0kbits/s speed=0.896x    
frame=  447 fps= 14 q=36.0 size=     256kB time=00:00:29.66 bitrate=  70.7kbits/s speed=0.897x    
frame=  455 fps= 14 q=36.0 size=     256kB time=00:00:30.20 bitrate=  69.5kbits/s speed=0.899x    
frame=  463 fps= 14 q=36.0 size=     256kB time=00:00:30.73 bitrate=  68.2kbits/s speed=0.901x    
frame=  472 fps= 14 q=36.0 size=     256kB time=00:00:31.26 bitrate=  67.1kbits/s speed=0.902x    
frame=  479 fps= 14 q=36.0 size=     256kB time=00:00:31.80 bitrate=  66.0kbits/s speed=0.904x    
frame=  487 fps= 14 q=36.0 size=     256kB time=00:00:32.33 bitrate=  64.9kbits/s speed=0.905x    
frame=  495 fps= 14 q=36.0 size=     256kB time=00:00:32.86 bitrate=  63.8kbits/s speed=0.906x    
frame=  503 fps= 14 q=36.0 size=     256kB time=00:00:33.40 bitrate=  62.8kbits/s speed=0.908x    
frame=  511 fps= 14 q=36.0 size=     256kB time=00:00:33.93 bitrate=  61.8kbits/s speed=0.909x    
frame=  519 fps= 14 q=36.0 size=     256kB time=00:00:34.46 bitrate=  60.9kbits/s speed=0.91x    
frame=  527 fps= 14 q=36.0 size=     256kB time=00:00:35.00 bitrate=  59.9kbits/s speed=0.912x    
frame=  535 fps= 14 q=36.0 size=     256kB time=00:00:35.53 bitrate=  59.0kbits/s speed=0.913x    
frame=  543 fps= 14 q=36.0 size=     256kB time=00:00:36.06 bitrate=  58.2kbits/s speed=0.914x    
frame=  551 fps= 14 q=36.0 size=     256kB time=00:00:36.60 bitrate=  57.3kbits/s speed=0.915x    
[mp4 @ 0x5610c488b7c0] Starting second pass: moving the moov atom to the beginning of the file
[out#0/mp4 @ 0x5610c488ab40] video:415kB audio:0kB subtitle:0kB other streams:0kB global headers:0kB muxing overhead: 1.839078%
frame=  603 fps= 15 q=-1.0 Lsize=     423kB time=00:00:40.00 bitrate=  86.6kbits/s speed=0.994x    
[libx264 @ 0x5610c488c300] frame I:4     Avg QP:25.07  size: 65334
[libx264 @ 0x5610c488c300] frame P:193   Avg QP:29.13  size:   656
[libx264 @ 0x5610c488c300] frame B:406   Avg QP:37.85  size:    90
[libx264 @ 0x5610c488c300] consecutive B-frames:  7.6%  5.3%  7.5% 79.6%
[libx264 @ 0x5610c488c300] mb I  I16..4: 19.3% 68.5% 12.2%
[libx264 @ 0x5610c488c300] mb P  I16..4:  1.8%  1.2%  0.4%  P16..4:  0.6%  0.1%  0.0%  0.0%  0.0%    skip:95.8%
[libx264 @ 0x5610c488c300] mb B  I16..4:  0.1%  0.1%  0.0%  B16..8:  1.1%  0.0%  0.0%  direct: 0.0%  skip:98.7%  L0:50.8% L1:49.1% BI: 0.1%
[libx264 @ 0x5610c488c300] 8x8 transform intra:49.6% inter:57.5%
[libx264 @ 0x5610c488c300] coded y,uvDC,uvAC intra: 16.0% 15.3% 6.5% inter: 0.1% 0.1% 0.0%
[libx264 @ 0x5610c488c300] i16 v,h,dc,p: 33% 63%  1%  3%
[libx264 @ 0x5610c488c300] i8 v,h,dc,ddl,ddr,vr,hd,vl,hu: 46%  6% 43%  1%  1%  1%  1%  1%  1%
[libx264 @ 0x5610c488c300] i4 v,h,dc,ddl,ddr,vr,hd,vl,hu: 27% 22% 26%  4%  4%  4%  5%  4%  4%
[libx264 @ 0x5610c488c300] i8c dc,h,v,p: 66% 27%  5%  1%
[libx264 @ 0x5610c488c300] Weighted P-Frames: Y:0.0% UV:0.0%
[libx264 @ 0x5610c488c300] ref P L0: 53.7% 13.7% 23.2%  9.4%
[libx264 @ 0x5610c488c300] ref B L0: 70.4% 25.2%  4.4%
[libx264 @ 0x5610c488c300] ref B L1: 95.4%  4.6%
[libx264 @ 0x5610c488c300] kb/s:84.48
Exiting normally, received signal 2.
